# xmcd CD Database Entry
#
# Track frame offsets:
# 150
# 5339
# 24058
# 41697
# 58155
# 76177
# 92935
# 116848
# 141884
# 161352
# 175409
# 190157
# 209689
#
# Disc length: 2986 seconds
#
# Revision: 2
# Processed by: cddbd v1.4PL0 Copyright (c) Steve Scherf et al.
# Submitted via: tcd 2.0b
#
DISCID=ab0ba80d
DTITLE=Vargas Blues Band - Blues Latino
DYEAR=1900
DGENRE=
TTITLE0=Intro
TTITLE1=Rock away the blues
TTITLE2=Coward's knife
TTITLE3=Brand new blues
TTITLE4=Out of the blue
TTITLE5=Hot wires
TTITLE6=Do you belive in love?
TTITLE7=Blues latino
TTITLE8=Magic of the gods
TTITLE9=Amapola negra
TTITLE10=Fear
TTITLE11=Mexico city blues
TTITLE12=Pachuco Boogie/Jeff's Boogie
EXTD=
EXTT0=
EXTT1=
EXTT2=
EXTT3=
EXTT4=
EXTT5=
EXTT6=
EXTT7=
EXTT8=
EXTT9=
EXTT10=
EXTT11=
EXTT12=
PLAYORDER=
